<svg width="64" height="13" viewBox="0 0 64 13" fill="none" xmlns="http://www.w3.org/2000/svg">
<path d="M1.93185 0.67046H4.96594L6.88072 8.48864H7.01708L11.5114 0.67046H14.5455L12.6137 12.3068H10.2273L11.4887 4.73296H11.3864L7.1364 12.25H5.50572L3.75572 4.70455H3.65912L2.3864 12.3068H3.32892e-05L1.93185 0.67046ZM18.8697 12.4773C17.9796 12.4773 17.2429 12.2879 16.6595 11.9091C16.0762 11.5265 15.6652 10.9962 15.4266 10.3182C15.1917 9.63637 15.1482 8.84281 15.2959 7.93751C15.4398 7.04357 15.7391 6.26137 16.1936 5.59091C16.6482 4.92046 17.2258 4.39963 17.9266 4.02841C18.6273 3.65341 19.4171 3.46591 20.2959 3.46591C21.1822 3.46591 21.9171 3.6572 22.5004 4.03978C23.0838 4.41857 23.4947 4.94887 23.7334 5.63069C23.972 6.31251 24.0175 7.10607 23.8697 8.01137C23.722 8.90152 23.419 9.68182 22.9607 10.3523C22.5023 11.0227 21.9247 11.5455 21.2277 11.9205C20.5307 12.2917 19.7447 12.4773 18.8697 12.4773ZM19.1084 10.6023C19.5175 10.6023 19.8792 10.4867 20.1936 10.2557C20.5118 10.0208 20.7751 9.70266 20.9834 9.30114C21.1955 8.89584 21.3432 8.43751 21.4266 7.92614C21.5099 7.42235 21.5156 6.97538 21.4436 6.58523C21.3716 6.19129 21.2201 5.88069 20.9891 5.65341C20.7618 5.42614 20.4493 5.31251 20.0516 5.31251C19.6425 5.31251 19.2788 5.42993 18.9607 5.66478C18.6425 5.89584 18.3792 6.21402 18.1709 6.61932C17.9626 7.02463 17.8167 7.48485 17.7334 8.00001C17.6538 8.50001 17.6482 8.94698 17.7163 9.34091C17.7845 9.73107 17.9341 10.0398 18.1652 10.2671C18.3963 10.4905 18.7107 10.6023 19.1084 10.6023ZM34.3574 3.57955L29.8517 12.3068H27.1244L25.5278 3.57955H27.9937L28.7665 9.82387H28.8574L31.704 3.57955H34.3574ZM34.4615 12.3068L35.916 3.57955H38.3365L36.8819 12.3068H34.4615ZM37.3762 2.44319C37.0164 2.44319 36.719 2.32387 36.4842 2.08523C36.2531 1.84281 36.1584 1.55493 36.2001 1.2216C36.2418 0.880687 36.4046 0.592808 36.6887 0.35796C36.9728 0.119323 37.2948 4.76837e-06 37.6546 4.76837e-06C38.0145 4.76837e-06 38.308 0.119323 38.5353 0.35796C38.7626 0.592808 38.8573 0.880687 38.8194 1.2216C38.7815 1.55493 38.6205 1.84281 38.3365 2.08523C38.0561 2.32387 37.7361 2.44319 37.3762 2.44319ZM43.0954 12.4773C42.2014 12.4773 41.4609 12.2955 40.8738 11.9318C40.2867 11.5644 39.8738 11.0455 39.6351 10.375C39.4003 9.70076 39.3605 8.90341 39.5158 7.98296C39.6673 7.08523 39.9723 6.29735 40.4306 5.61932C40.8927 4.94129 41.4723 4.41288 42.1692 4.0341C42.8662 3.65531 43.6427 3.46591 44.4988 3.46591C45.0745 3.46591 45.5954 3.55872 46.0613 3.74432C46.531 3.92614 46.9211 4.20266 47.2317 4.57387C47.5423 4.94129 47.7545 5.40152 47.8681 5.95455C47.9855 6.50758 47.9836 7.15531 47.8624 7.89773L47.7545 8.56251H40.3908L40.6238 7.06251H45.7147C45.7715 6.71402 45.7488 6.40531 45.6465 6.13637C45.5442 5.86743 45.3738 5.6572 45.1351 5.50569C44.8965 5.35038 44.6029 5.27273 44.2545 5.27273C43.8984 5.27273 43.5651 5.35985 43.2545 5.5341C42.9439 5.70834 42.6825 5.93751 42.4704 6.2216C42.262 6.5019 42.1276 6.80682 42.067 7.13637L41.7999 8.62501C41.7242 9.08334 41.7393 9.46402 41.8454 9.76705C41.9552 10.0701 42.1446 10.2974 42.4136 10.4489C42.6825 10.5966 43.0234 10.6705 43.4363 10.6705C43.7052 10.6705 43.9571 10.6326 44.192 10.5568C44.4306 10.4811 44.6427 10.3693 44.8283 10.2216C45.0139 10.0701 45.1654 9.88258 45.2829 9.6591L47.4931 9.80682C47.2886 10.3447 46.9779 10.8144 46.5613 11.2159C46.1446 11.6136 45.6427 11.9242 45.0556 12.1477C44.4723 12.3674 43.8189 12.4773 43.0954 12.4773ZM52.9825 12.3068L53.2325 10.8466L60.3973 2.69887H54.5621L54.903 0.67046H63.8121L63.5678 2.13069L56.3973 10.2784H62.2325L61.8916 12.3068H52.9825Z" fill="#FAFAFA"/>
</svg>
